<svg xmlns="http://www.w3.org/2000/svg" viewBox="0 0 375 2420" width="100%" height="100%" style="background-color: #f8f9fa;">
  <rect x="8" y="8" width="359" height="2404" rx="6" fill="#ffffff" stroke="#7f8c8d" stroke-width="2" />
  
  <text x="357" y="24" font-family="monospace" font-size="8" fill="#a0aec0" text-anchor="end" font-weight="bold">MOBILE WIREFRAME MATRIX // WDD 131 PROJECT</text>

  <g transform="translate(16, 35)">
    <rect x="0" y="0" width="343" height="42" fill="#1a1a2e" rx="3" />
    <text x="12" y="16" font-family="Arial, sans-serif" font-size="10" fill="#ffffff" font-weight="bold">PHONE: +2348068133269</text>
    <text x="12" y="32" font-family="Arial, sans-serif" font-size="10" fill="#ffffff" font-weight="bold">EMAIL: info@thebloodline.org</text>
    
    <rect x="0" y="50" width="343" height="54" fill="#edf2f7" stroke="#cbd5e0" stroke-width="1.5" rx="4" />
    <text x="14" y="83" font-family="Arial, sans-serif" font-size="18" font-weight="900" fill="#8b0000" letter-spacing="-0.5">The Bloodline</text>
    
    <g transform="translate(295, 66)" stroke="#2d3748" stroke-width="2.5" stroke-linecap="round">
      <line x1="0" y1="0" x2="20" y2="0" />
      <line x1="0" y1="7" x2="20" y2="7" />
      <line x1="0" y1="14" x2="20" y2="14" />
    </g>
  </g>

  <g transform="translate(16, 155)">
    <rect x="0" y="0" width="343" height="380" fill="#2c3e50" rx="4" />
    
    <rect x="0" y="0" width="343" height="160" fill="#34495e" opacity="0.8" rx="4" />
    <line x1="0" y1="0" x2="343" y2="160" stroke="#2c3e50" stroke-width="1.5" stroke-dasharray="6" />
    <line x1="160" y1="160" x2="343" y2="0" stroke="#2c3e50" stroke-width="1.5" stroke-dasharray="6" />
    <circle cx="171.5" cy="80" r="28" fill="none" stroke="#2c3e50" stroke-width="2" stroke-dasharray="4" />
    <text x="171.5" y="84" font-family="Arial, sans-serif" font-size="11" font-weight="bold" fill="#bdc3c7" text-anchor="middle">[ focal visual placeholder ]</text>

    <text x="20" y="200" font-family="Arial, sans-serif" font-size="24" font-weight="900" fill="#ffffff">Support a causes</text>
    <text x="20" y="232" font-family="Arial, sans-serif" font-size="24" font-weight="900" fill="#ffffff">you care about</text>
    
    <text x="20" y="270" font-family="Arial, sans-serif" font-size="12" fill="#cbd5e0" font-weight="500">Sedac odio aliquet, fringilla odio eget, tincidunt</text>
    <text x="20" y="288" font-family="Arial, sans-serif" font-size="12" fill="#cbd5e0" font-weight="500">nunc. Duis aliquet pulvinar ante tempor</text>
    <text x="20" y="306" font-family="Arial, sans-serif" font-size="12" fill="#cbd5e0" font-weight="500">etiam lacus eros.</text>
    
    <rect x="20" y="330" width="130" height="36" rx="18" fill="#8b0000" />
    <text x="85" y="352" font-family="Arial, sans-serif" font-size="12" font-weight="bold" fill="#ffffff" text-anchor="middle">Active Causes</text>
  </g>

  <g transform="translate(16, 555)">
    <text x="0" y="28" font-family="Arial, sans-serif" font-size="24" font-weight="900" fill="#1a1a2e">Who we are?</text>
    <text x="0" y="54" font-family="Arial, sans-serif" font-size="12" font-weight="bold" fill="#4a5568">Sedac odio aliquet, fringilla odio eget, tincidunt nunc.</text>
    <text x="0" y="72" font-family="Arial, sans-serif" font-size="12" font-weight="bold" fill="#4a5568">Duis aliquet pulvinar ante tempor etiam lacus eros.</text>

    <rect x="0" y="90" width="343" height="180" fill="#e2e8f0" stroke="#cbd5e0" stroke-width="1.5" rx="4" />
    <line x1="0" y1="90" x2="343" y2="270" stroke="#cbd5e0" stroke-width="1" />
    <line x1="270" y1="270" x2="343" y2="90" stroke="#cbd5e0" stroke-width="1" />
    <rect x="111" y="160" width="120" height="34" fill="#ffffff" stroke="#cbd5e0" rx="2" />
    <text x="171" y="181" font-family="Arial, sans-serif" font-size="12" font-weight="bold" fill="#718096" text-anchor="middle">SUPPORT</text>

    <g font-family="Arial, sans-serif" font-size="12" fill="#718096" font-weight="500">
      <text x="0" y="294">The legal definition of a charitable organization (and of</text>
      <text x="0" y="312">charity) varies between countries and in some instances</text>
      <text x="0" y="330">regions of the country. The regulation, the tax treatment,</text>
      <text x="0" y="348">and the way in which charity law affects charitable</text>
      <text x="0" y="366">organizations also vary.</text>
    </g>
    
    <rect x="0" y="386" width="120" height="36" rx="18" fill="#8b0000" />
    <text x="60" y="408" font-family="Arial, sans-serif" font-size="12" font-weight="bold" fill="#ffffff" text-anchor="middle">Learn More</text>
  </g>

  <g transform="translate(16, 1010)">
    <text x="171.5" y="24" font-family="Arial, sans-serif" font-size="22" font-weight="900" fill="#1a1a2e" text-anchor="middle">Causes we are serving</text>
    
    <g transform="translate(0, 50)">
      <rect x="0" y="0" width="343" height="190" fill="#ffffff" stroke="#cbd5e0" stroke-width="1.5" rx="4" />
      <rect x="10" y="10" width="323" height="100" fill="#edf2f7" rx="2" />
      <line x1="10" y1="10" x2="333" y2="110" stroke="#e2e8f0" />
      <text x="15" y="132" font-family="Arial, sans-serif" font-size="14" font-weight="bold" fill="#1a1a2e">The ecosystems</text>
      <text x="15" y="150" font-family="Arial, sans-serif" font-size="11" fill="#718096">aliquet, fringilla odio eget.</text>
      <rect x="288" y="158" width="40" height="20" rx="10" fill="#edf2f7" />
      <text x="308" y="172" font-family="Arial, sans-serif" font-size="10" font-weight="bold" fill="#8b0000" text-anchor="middle">70%</text>
    </g>

    <g transform="translate(0, 255)">
      <rect x="0" y="0" width="343" height="190" fill="#ffffff" stroke="#cbd5e0" stroke-width="1.5" rx="4" />
      <rect x="10" y="10" width="323" height="100" fill="#edf2f7" rx="2" />
      <line x1="10" y1="10" x2="333" y2="110" stroke="#e2e8f0" />
      <text x="15" y="132" font-family="Arial, sans-serif" font-size="14" font-weight="bold" fill="#1a1a2e">Sponsor a child</text>
      <text x="15" y="150" font-family="Arial, sans-serif" font-size="11" fill="#718096">Sedac odio aliquet, fringilla.</text>
      <rect x="288" y="158" width="40" height="20" rx="10" fill="#edf2f7" />
      <text x="308" y="172" font-family="Arial, sans-serif" font-size="10" font-weight="bold" fill="#8b0000" text-anchor="middle">85%</text>
    </g>

    <g transform="translate(0, 460)">
      <rect x="0" y="0" width="343" height="190" fill="#ffffff" stroke="#cbd5e0" stroke-width="1.5" rx="4" />
      <rect x="10" y="10" width="323" height="100" fill="#edf2f7" rx="2" />
      <line x1="10" y1="10" x2="333" y2="110" stroke="#e2e8f0" />
      <text x="15" y="132" font-family="Arial, sans-serif" font-size="14" font-weight="bold" fill="#1a1a2e">Help senior citizens</text>
      <text x="15" y="150" font-family="Arial, sans-serif" font-size="11" fill="#718096">Sectac odio aliquet, fringilla.</text>
      <rect x="288" y="158" width="40" height="20" rx="10" fill="#edf2f7" />
      <text x="308" y="172" font-family="Arial, sans-serif" font-size="10" font-weight="bold" fill="#8b0000" text-anchor="middle">60%</text>
    </g>

    <g transform="translate(0, 665)">
      <rect x="0" y="0" width="343" height="190" fill="#ffffff" stroke="#cbd5e0" stroke-width="1.5" rx="4" />
      <rect x="10" y="10" width="323" height="100" fill="#edf2f7" rx="2" />
      <line x1="10" y1="10" x2="333" y2="110" stroke="#e2e8f0" />
      <text x="15" y="132" font-family="Arial, sans-serif" font-size="14" font-weight="bold" fill="#1a1a2e">Help the community</text>
      <text x="15" y="150" font-family="Arial, sans-serif" font-size="11" fill="#718096">Sedac odio aliquet layout.</text>
      <rect x="288" y="158" width="40" height="20" rx="10" fill="#edf2f7" />
      <text x="308" y="172" font-family="Arial, sans-serif" font-size="10" font-weight="bold" fill="#8b0000" text-anchor="middle">95%</text>
    </g>
  </g>

  <g transform="translate(16, 1905)">
    <text x="0" y="24" font-family="Arial, sans-serif" font-size="24" font-weight="900" fill="#1a1a2e">Join with Us</text>
    
    <g font-family="Arial, sans-serif" font-size="12" fill="#718096" font-weight="500">
      <text x="0" y="48">The legal definition of a charitable organization (and of</text>
      <text x="0" y="66">charity) varies between countries and in some instances</text>
      <text x="0" y="84">regions of the country. The regulation, the tax treatment,</text>
      <text x="0" y="102">and the way.</text>
    </g>
    
    <rect x="0" y="122" width="120" height="36" rx="18" fill="#8b0000" />
    <text x="60" y="144" font-family="Arial, sans-serif" font-size="12" font-weight="bold" fill="#ffffff" text-anchor="middle">Join Now</text>

    <rect x="0" y="178" width="164" height="120" fill="#edf2f7" stroke="#cbd5e0" stroke-width="1.5" rx="4" />
    <line x1="0" y1="178" x2="164" y2="298" stroke="#cbd5e0" />
    
    <rect x="179" y="178" width="164" height="120" fill="#edf2f7" stroke="#cbd5e0" stroke-width="1.5" rx="4" />
    <line x1="179" y1="178" x2="343" y2="298" stroke="#cbd5e0" />
  </g>

  <g transform="translate(16, 2235)">
    <rect x="0" y="0" width="343" height="150" fill="#1a1a2e" rx="4" />
    
    <g font-family="Arial, sans-serif" text-anchor="middle" fill="#ffffff">
      <text x="171.5" y="26" font-size="14" font-weight="900" fill="#ffffff">The Bloodline</text>
      <text x="171.5" y="44" font-size="10.5" fill="#a0aec0" font-weight="500">EMAIL: info@thebloodline.org   |   PHONE: +2348068133269</text>
      
      <text x="171.5" y="66" font-size="10" fill="#718096" font-weight="bold">SERVICES: Lorem ipsum dolor sit amet, consectetur adipiscing elit.</text>
      
      <line x1="20" y1="80" x2="323" y2="80" stroke="#2d3748" stroke-width="1" />
      <text x="171.5" y="105" font-size="11" fill="#a0aec0" font-weight="500">WDD 131 Final Project | Kevin Cross Minchakpu</text>
      <text x="171.5" y="126" font-size="9.5" fill="#64748b" font-weight="bold">Last Modification: 10/21/202X 22:12:35</text>
    </g>
  </g>
</svg>
